<svg width="41" height="33" viewBox="0 0 41 33" fill="none" xmlns="http://www.w3.org/2000/svg">
<path d="M27.3335 23.3333V1.125H1.7085V23.3333H27.3335ZM27.3335 23.3333H39.2918V14.7917L34.1668 9.66667H27.3335V23.3333ZM13.6668 27.6042C13.6668 29.9629 11.7547 31.875 9.396 31.875C7.03728 31.875 5.12516 29.9629 5.12516 27.6042C5.12516 25.2455 7.03728 23.3333 9.396 23.3333C11.7547 23.3333 13.6668 25.2455 13.6668 27.6042ZM35.8752 27.6042C35.8752 29.9629 33.963 31.875 31.6043 31.875C29.2456 31.875 27.3335 29.9629 27.3335 27.6042C27.3335 25.2455 29.2456 23.3333 31.6043 23.3333C33.963 23.3333 35.8752 25.2455 35.8752 27.6042Z" stroke="white" stroke-width="2" stroke-linecap="round" stroke-linejoin="round"/>
</svg>
