<svg width="32" height="33" viewBox="0 0 32 33" fill="none" xmlns="http://www.w3.org/2000/svg">
<path d="M12 30.25V16.5H20V30.25M4 12.375L16 2.75L28 12.375V27.5C28 28.2293 27.719 28.9288 27.219 29.4445C26.7189 29.9603 26.0406 30.25 25.3333 30.25H6.66667C5.95942 30.25 5.28115 29.9603 4.78105 29.4445C4.28095 28.9288 4 28.2293 4 27.5V12.375Z" stroke="white" stroke-width="2" stroke-linecap="round" stroke-linejoin="round"/>
<path d="M12 30.25V16.5H20V30.25M4 12.375L16 2.75L28 12.375V27.5C28 28.2293 27.719 28.9288 27.219 29.4445C26.7189 29.9603 26.0406 30.25 25.3333 30.25H6.66667C5.95942 30.25 5.28115 29.9603 4.78105 29.4445C4.28095 28.9288 4 28.2293 4 27.5V12.375Z" stroke="#393939" stroke-width="2" stroke-linecap="round" stroke-linejoin="round"/>
</svg>
