<svg width="31" height="31" viewBox="0 0 31 31" fill="none" xmlns="http://www.w3.org/2000/svg">
<path d="M28.4167 21.855V25.73C28.4181 26.0898 28.3444 26.4458 28.2003 26.7755C28.0562 27.1051 27.8448 27.4009 27.5798 27.6441C27.3147 27.8873 27.0017 28.0725 26.661 28.1877C26.3202 28.303 25.9591 28.3458 25.6008 28.3134C21.6262 27.8815 17.8082 26.5233 14.4537 24.348C11.3329 22.3648 8.68689 19.7189 6.70375 16.598C4.5208 13.2283 3.16231 9.39175 2.73833 5.39921C2.70605 5.04202 2.7485 4.68203 2.86297 4.34214C2.97745 4.00226 3.16144 3.68993 3.40323 3.42505C3.64503 3.16017 3.93933 2.94854 4.26739 2.80363C4.59546 2.65873 4.9501 2.58371 5.30875 2.58338H9.18375C9.8106 2.57721 10.4183 2.79919 10.8936 3.20794C11.3689 3.61669 11.6793 4.18433 11.7671 4.80504C11.9306 6.04513 12.234 7.26273 12.6712 8.43463C12.845 8.89695 12.8826 9.39939 12.7796 9.88243C12.6766 10.3655 12.4373 10.8089 12.09 11.16L10.4496 12.8005C12.2883 16.0342 14.9658 18.7117 18.1996 20.5505L19.84 18.91C20.1912 18.5628 20.6346 18.3234 21.1176 18.2204C21.6006 18.1174 22.1031 18.155 22.5654 18.3288C23.7373 18.7661 24.9549 19.0694 26.195 19.233C26.8224 19.3215 27.3955 19.6375 27.8051 20.121C28.2147 20.6044 28.4324 21.2216 28.4167 21.855Z" stroke="white" stroke-width="2" stroke-linecap="round" stroke-linejoin="round"/>
</svg>
