<svg width="39" height="38" viewBox="0 0 39 38" fill="none" xmlns="http://www.w3.org/2000/svg">
<g clip-path="url(#clip0_459_713)">
<path d="M19.5 23.7502C22.1924 23.7502 24.375 21.6235 24.375 19.0002C24.375 16.3768 22.1924 14.2502 19.5 14.2502C16.8076 14.2502 14.625 16.3768 14.625 19.0002C14.625 21.6235 16.8076 23.7502 19.5 23.7502Z" stroke="#1E1E1E" stroke-width="2" stroke-linecap="round" stroke-linejoin="round"/>
<path d="M31.525 23.7502C31.3087 24.2277 31.2442 24.7575 31.3397 25.2711C31.4353 25.7847 31.6866 26.2587 32.0612 26.6318L32.1588 26.7268C32.4609 27.0209 32.7006 27.3702 32.8642 27.7546C33.0277 28.139 33.1119 28.5511 33.1119 28.9672C33.1119 29.3834 33.0277 29.7955 32.8642 30.1799C32.7006 30.5643 32.4609 30.9136 32.1588 31.2077C31.8569 31.5021 31.4985 31.7357 31.1039 31.895C30.7094 32.0544 30.2865 32.1364 29.8594 32.1364C29.4323 32.1364 29.0094 32.0544 28.6148 31.895C28.2203 31.7357 27.8618 31.5021 27.56 31.2077L27.4625 31.1127C27.0795 30.7476 26.5931 30.5028 26.066 30.4097C25.5388 30.3165 24.9951 30.3794 24.505 30.5902C24.0244 30.7909 23.6145 31.1241 23.3257 31.5489C23.037 31.9737 22.8821 32.4715 22.88 32.981V33.2502C22.88 34.09 22.5376 34.8955 21.9281 35.4893C21.3186 36.0832 20.492 36.4168 19.63 36.4168C18.768 36.4168 17.9414 36.0832 17.3319 35.4893C16.7224 34.8955 16.38 34.09 16.38 33.2502V33.1077C16.3674 32.5836 16.1933 32.0753 15.8803 31.6489C15.5673 31.2226 15.1299 30.8978 14.625 30.7168C14.1349 30.5061 13.5912 30.4432 13.064 30.5363C12.5369 30.6295 12.0505 30.8743 11.6675 31.2393L11.57 31.3343C11.2682 31.6288 10.9097 31.8623 10.5152 32.0217C10.1206 32.181 9.69773 32.2631 9.27062 32.2631C8.84352 32.2631 8.42061 32.181 8.02607 32.0217C7.63153 31.8623 7.27309 31.6288 6.97125 31.3343C6.66908 31.0402 6.42936 30.691 6.26581 30.3066C6.10225 29.9221 6.01807 29.5101 6.01807 29.0939C6.01807 28.6778 6.10225 28.2657 6.26581 27.8813C6.42936 27.4968 6.66908 27.1476 6.97125 26.8535L7.06875 26.7585C7.44337 26.3853 7.69468 25.9114 7.79026 25.3978C7.88584 24.8841 7.82131 24.3544 7.605 23.8768C7.39901 23.4085 7.05698 23.0091 6.62101 22.7278C6.18503 22.4465 5.67415 22.2955 5.15125 22.2935H4.875C4.01305 22.2935 3.1864 21.9599 2.5769 21.366C1.96741 20.7721 1.625 19.9667 1.625 19.1268C1.625 18.287 1.96741 17.4815 2.5769 16.8877C3.1864 16.2938 4.01305 15.9602 4.875 15.9602H5.02125C5.55912 15.9479 6.08076 15.7783 6.51836 15.4733C6.95596 15.1683 7.28929 14.7422 7.475 14.2502C7.69131 13.7726 7.75584 13.2429 7.66026 12.7292C7.56468 12.2156 7.31337 11.7417 6.93875 11.3685L6.84125 11.2735C6.53908 10.9794 6.29936 10.6302 6.13581 10.2457C5.97225 9.8613 5.88807 9.44923 5.88807 9.03308C5.88807 8.61693 5.97225 8.20486 6.13581 7.82044C6.29936 7.43601 6.53908 7.08676 6.84125 6.79266C7.14309 6.49824 7.50153 6.26467 7.89607 6.10531C8.29061 5.94595 8.71352 5.86392 9.14062 5.86392C9.56773 5.86392 9.99064 5.94595 10.3852 6.10531C10.7797 6.26467 11.1382 6.49824 11.44 6.79266L11.5375 6.88766C11.9205 7.25268 12.4069 7.49754 12.934 7.59067C13.4612 7.6838 14.0049 7.62093 14.495 7.41016H14.625C15.1056 7.20946 15.5155 6.87619 15.8043 6.4514C16.093 6.02661 16.2479 5.52883 16.25 5.01933V4.75016C16.25 3.91031 16.5924 3.10486 17.2019 2.51099C17.8114 1.91713 18.638 1.5835 19.5 1.5835C20.362 1.5835 21.1886 1.91713 21.7981 2.51099C22.4076 3.10486 22.75 3.91031 22.75 4.75016V4.89266C22.7521 5.40216 22.907 5.89994 23.1957 6.32473C23.4845 6.74953 23.8944 7.08279 24.375 7.2835C24.8651 7.49426 25.4088 7.55713 25.936 7.464C26.4631 7.37087 26.9495 7.12601 27.3325 6.761L27.43 6.666C27.7318 6.37157 28.0903 6.138 28.4848 5.97864C28.8794 5.81928 29.3023 5.73726 29.7294 5.73726C30.1565 5.73726 30.5794 5.81928 30.9739 5.97864C31.3685 6.138 31.7269 6.37157 32.0287 6.666C32.3309 6.96009 32.5706 7.30934 32.7342 7.69377C32.8977 8.0782 32.9819 8.49026 32.9819 8.90641C32.9819 9.32256 32.8977 9.73463 32.7342 10.1191C32.5706 10.5035 32.3309 10.8527 32.0287 11.1468L31.9312 11.2418C31.5566 11.615 31.3053 12.0889 31.2097 12.6026C31.1142 13.1162 31.1787 13.6459 31.395 14.1235V14.2502C31.601 14.7185 31.943 15.1179 32.379 15.3992C32.815 15.6805 33.3258 15.8315 33.8487 15.8335H34.125C34.987 15.8335 35.8136 16.1671 36.4231 16.761C37.0326 17.3549 37.375 18.1603 37.375 19.0002C37.375 19.84 37.0326 20.6455 36.4231 21.2393C35.8136 21.8332 34.987 22.1668 34.125 22.1668H33.9787C33.4558 22.1689 32.945 22.3198 32.509 22.6012C32.073 22.8825 31.731 23.2819 31.525 23.7502Z" stroke="#1E1E1E" stroke-width="2" stroke-linecap="round" stroke-linejoin="round"/>
</g>
<defs>
<clipPath id="clip0_459_713">
<rect width="39" height="38" fill="white"/>
</clipPath>
</defs>
</svg>
