<svg width="31" height="31" viewBox="0 0 31 31" fill="none" xmlns="http://www.w3.org/2000/svg">
<g clip-path="url(#clip0_504_1881)">
<path d="M15.5 19.375C17.6401 19.375 19.375 17.6401 19.375 15.5C19.375 13.3599 17.6401 11.625 15.5 11.625C13.3599 11.625 11.625 13.3599 11.625 15.5C11.625 17.6401 13.3599 19.375 15.5 19.375Z" stroke="white" stroke-width="2" stroke-linecap="round" stroke-linejoin="round"/>
<path d="M25.0583 19.375C24.8864 19.7645 24.8351 20.1967 24.911 20.6157C24.987 21.0347 25.1868 21.4214 25.4845 21.7258L25.562 21.8033C25.8022 22.0432 25.9928 22.3281 26.1228 22.6417C26.2528 22.9554 26.3197 23.2915 26.3197 23.631C26.3197 23.9705 26.2528 24.3067 26.1228 24.6203C25.9928 24.9339 25.8022 25.2188 25.562 25.4587C25.3221 25.6989 25.0372 25.8894 24.7236 26.0194C24.41 26.1495 24.0738 26.2164 23.7343 26.2164C23.3948 26.2164 23.0587 26.1495 22.7451 26.0194C22.4315 25.8894 22.1465 25.6989 21.9066 25.4587L21.8291 25.3812C21.5247 25.0834 21.1381 24.8837 20.7191 24.8077C20.3 24.7317 19.8679 24.783 19.4783 24.955C19.0963 25.1187 18.7704 25.3906 18.5409 25.7371C18.3114 26.0837 18.1883 26.4897 18.1866 26.9054V27.125C18.1866 27.8101 17.9145 28.4672 17.43 28.9517C16.9455 29.4361 16.2884 29.7083 15.6033 29.7083C14.9182 29.7083 14.2611 29.4361 13.7766 28.9517C13.2921 28.4672 13.02 27.8101 13.02 27.125V27.0087C13.01 26.5812 12.8716 26.1665 12.6228 25.8187C12.374 25.4709 12.0263 25.2059 11.625 25.0583C11.2354 24.8864 10.8032 24.8351 10.3842 24.911C9.96519 24.987 9.57855 25.1868 9.27413 25.4845L9.19663 25.562C8.9567 25.8022 8.67179 25.9928 8.35818 26.1228C8.04457 26.2528 7.70841 26.3197 7.36892 26.3197C7.02943 26.3197 6.69327 26.2528 6.37966 26.1228C6.06604 25.9928 5.78113 25.8022 5.54121 25.562C5.30102 25.3221 5.11048 25.0372 4.98047 24.7236C4.85047 24.41 4.78355 24.0738 4.78355 23.7343C4.78355 23.3948 4.85047 23.0587 4.98047 22.7451C5.11048 22.4315 5.30102 22.1465 5.54121 21.9066L5.61871 21.8291C5.91649 21.5247 6.11624 21.1381 6.19222 20.7191C6.26819 20.3 6.2169 19.8679 6.04496 19.4783C5.88122 19.0963 5.60935 18.7704 5.26281 18.5409C4.91627 18.3114 4.51018 18.1883 4.09454 18.1866H3.87496C3.18982 18.1866 2.53274 17.9145 2.04827 17.43C1.5638 16.9455 1.29163 16.2884 1.29163 15.6033C1.29163 14.9182 1.5638 14.2611 2.04827 13.7766C2.53274 13.2921 3.18982 13.02 3.87496 13.02H3.99121C4.41874 13.01 4.83338 12.8716 5.18122 12.6228C5.52906 12.374 5.79401 12.0263 5.94163 11.625C6.11357 11.2354 6.16486 10.8032 6.08888 10.3842C6.01291 9.96519 5.81315 9.57855 5.51538 9.27413L5.43788 9.19663C5.19769 8.9567 5.00714 8.67179 4.87714 8.35818C4.74713 8.04457 4.68022 7.70841 4.68022 7.36892C4.68022 7.02943 4.74713 6.69327 4.87714 6.37966C5.00714 6.06604 5.19769 5.78113 5.43788 5.54121C5.6778 5.30102 5.96271 5.11048 6.27632 4.98047C6.58993 4.85047 6.92609 4.78355 7.26558 4.78355C7.60507 4.78355 7.94124 4.85047 8.25485 4.98047C8.56846 5.11048 8.85337 5.30102 9.09329 5.54121L9.17079 5.61871C9.47521 5.91649 9.86186 6.11624 10.2809 6.19222C10.6999 6.26819 11.132 6.2169 11.5216 6.04496H11.625C12.007 5.88122 12.3328 5.60935 12.5623 5.26281C12.7918 4.91627 12.915 4.51018 12.9166 4.09454V3.87496C12.9166 3.18982 13.1888 2.53274 13.6733 2.04827C14.1577 1.5638 14.8148 1.29163 15.5 1.29163C16.1851 1.29163 16.8422 1.5638 17.3267 2.04827C17.8111 2.53274 18.0833 3.18982 18.0833 3.87496V3.99121C18.085 4.40685 18.2081 4.81294 18.4376 5.15948C18.6671 5.50602 18.9929 5.77789 19.375 5.94163C19.7645 6.11357 20.1967 6.16486 20.6157 6.08888C21.0347 6.01291 21.4214 5.81315 21.7258 5.51538L21.8033 5.43788C22.0432 5.19769 22.3281 5.00714 22.6417 4.87714C22.9554 4.74713 23.2915 4.68022 23.631 4.68022C23.9705 4.68022 24.3067 4.74713 24.6203 4.87714C24.9339 5.00714 25.2188 5.19769 25.4587 5.43788C25.6989 5.6778 25.8894 5.96271 26.0194 6.27632C26.1495 6.58993 26.2164 6.92609 26.2164 7.26558C26.2164 7.60507 26.1495 7.94124 26.0194 8.25485C25.8894 8.56846 25.6989 8.85337 25.4587 9.09329L25.3812 9.17079C25.0834 9.47521 24.8837 9.86186 24.8077 10.2809C24.7317 10.6999 24.783 11.132 24.955 11.5216V11.625C25.1187 12.007 25.3906 12.3328 25.7371 12.5623C26.0837 12.7918 26.4897 12.915 26.9054 12.9166H27.125C27.8101 12.9166 28.4672 13.1888 28.9517 13.6733C29.4361 14.1577 29.7083 14.8148 29.7083 15.5C29.7083 16.1851 29.4361 16.8422 28.9517 17.3267C28.4672 17.8111 27.8101 18.0833 27.125 18.0833H27.0087C26.5931 18.085 26.187 18.2081 25.8404 18.4376C25.4939 18.6671 25.222 18.9929 25.0583 19.375Z" stroke="white" stroke-width="2" stroke-linecap="round" stroke-linejoin="round"/>
</g>
<defs>
<clipPath id="clip0_504_1881">
<rect width="31" height="31" fill="white"/>
</clipPath>
</defs>
</svg>
