<svg width="43" height="42" viewBox="0 0 43 42" fill="none" xmlns="http://www.w3.org/2000/svg">
<path d="M30.4582 36.75V33.25C30.4582 31.3935 29.7031 29.613 28.3591 28.3003C27.0151 26.9875 25.1922 26.25 23.2915 26.25H8.95817C7.05745 26.25 5.23458 26.9875 3.89057 28.3003C2.54656 29.613 1.7915 31.3935 1.7915 33.25V36.75M41.2082 36.75V33.25C41.207 31.699 40.6785 30.1924 39.7056 28.9666C38.7328 27.7408 37.3706 26.8652 35.8332 26.4775M28.6665 5.4775C30.2081 5.86303 31.5744 6.73873 32.5502 7.96654C33.5259 9.19436 34.0556 10.7045 34.0556 12.2588C34.0556 13.813 33.5259 15.3231 32.5502 16.551C31.5744 17.7788 30.2081 18.6545 28.6665 19.04M23.2915 12.25C23.2915 16.116 20.0829 19.25 16.1248 19.25C12.1668 19.25 8.95817 16.116 8.95817 12.25C8.95817 8.38401 12.1668 5.25 16.1248 5.25C20.0829 5.25 23.2915 8.38401 23.2915 12.25Z" stroke="#393939" stroke-width="2" stroke-linecap="round" stroke-linejoin="round"/>
</svg>
