<svg width="34" height="34" viewBox="0 0 34 34" fill="none" xmlns="http://www.w3.org/2000/svg">
<path d="M24.0833 29.75V26.9167C24.0833 25.4138 23.4863 23.9724 22.4236 22.9097C21.3609 21.847 19.9195 21.25 18.4167 21.25H7.08332C5.58043 21.25 4.13909 21.847 3.07638 22.9097C2.01368 23.9724 1.41666 25.4138 1.41666 26.9167V29.75M32.5833 29.75V26.9167C32.5824 25.6611 32.1645 24.4414 31.3953 23.4491C30.626 22.4568 29.549 21.7481 28.3333 21.4342M22.6667 4.43417C23.8856 4.74626 24.966 5.45516 25.7375 6.44911C26.509 7.44305 26.9278 8.66551 26.9278 9.92375C26.9278 11.182 26.509 12.4044 25.7375 13.3984C24.966 14.3923 23.8856 15.1012 22.6667 15.4133M18.4167 9.91667C18.4167 13.0463 15.8796 15.5833 12.75 15.5833C9.62038 15.5833 7.08332 13.0463 7.08332 9.91667C7.08332 6.78705 9.62038 4.25 12.75 4.25C15.8796 4.25 18.4167 6.78705 18.4167 9.91667Z" stroke="white" stroke-width="2" stroke-linecap="round" stroke-linejoin="round"/>
</svg>
