<svg width="34" height="34" viewBox="0 0 34 34" fill="none" xmlns="http://www.w3.org/2000/svg">
<path d="M24.0834 29.75V26.9167C24.0834 25.4138 23.4863 23.9724 22.4236 22.9097C21.3609 21.847 19.9196 21.25 18.4167 21.25H7.08335C5.58046 21.25 4.13912 21.847 3.07642 22.9097C2.01371 23.9724 1.41669 25.4138 1.41669 26.9167V29.75M32.5834 29.75V26.9167C32.5824 25.6611 32.1645 24.4414 31.3953 23.4491C30.6261 22.4568 29.549 21.7481 28.3334 21.4342M22.6667 4.43417C23.8856 4.74626 24.966 5.45516 25.7375 6.44911C26.509 7.44305 26.9278 8.66551 26.9278 9.92375C26.9278 11.182 26.509 12.4044 25.7375 13.3984C24.966 14.3923 23.8856 15.1012 22.6667 15.4133M18.4167 9.91667C18.4167 13.0463 15.8796 15.5833 12.75 15.5833C9.62041 15.5833 7.08335 13.0463 7.08335 9.91667C7.08335 6.78705 9.62041 4.25 12.75 4.25C15.8796 4.25 18.4167 6.78705 18.4167 9.91667Z" stroke="#393939" stroke-width="2" stroke-linecap="round" stroke-linejoin="round"/>
</svg>
